<?xml version="1.0" encoding="utf-8"?>
<!-- Generator: Adobe Illustrator 27.2.0, SVG Export Plug-In . SVG Version: 6.00 Build 0)  -->
<svg version="1.1" id="Layer_1" xmlns="http://www.w3.org/2000/svg" xmlns:xlink="http://www.w3.org/1999/xlink" x="0px" y="0px"
	 viewBox="0 0 180 68.41" style="enable-background:new 0 0 180 68.41;" xml:space="preserve">
<style type="text/css">
	.st0{fill:#17214C;}
	.st1{fill:#626464;}
	.st2{fill-rule:evenodd;clip-rule:evenodd;fill:#17214C;}
	.st3{fill-rule:evenodd;clip-rule:evenodd;fill:#85888D;}
	.st4{fill-rule:evenodd;clip-rule:evenodd;fill:#626464;}
	.st5{fill-rule:evenodd;clip-rule:evenodd;fill:#F58020;}
</style>
<g>
	<path class="st0" d="M65.99,22.89V27h-2.27V16.28h3.12c1.46,0,2.53,0.27,3.23,0.8c0.7,0.53,1.05,1.33,1.05,2.42
		c0,0.63-0.17,1.19-0.52,1.68s-0.84,0.88-1.47,1.15c1.61,2.41,2.66,3.97,3.15,4.67h-2.52l-2.56-4.11H65.99z M65.99,21.04h0.73
		c0.72,0,1.25-0.12,1.59-0.36s0.51-0.62,0.51-1.13c0-0.51-0.17-0.87-0.52-1.08c-0.35-0.21-0.89-0.32-1.62-0.32h-0.69V21.04z"/>
	<path class="st0" d="M77.16,27.15c-1.32,0-2.35-0.36-3.09-1.09c-0.74-0.73-1.11-1.76-1.11-3.09c0-1.37,0.34-2.44,1.03-3.19
		s1.64-1.12,2.85-1.12c1.16,0,2.06,0.33,2.71,0.99c0.64,0.66,0.97,1.57,0.97,2.73v1.08h-5.29c0.02,0.64,0.21,1.13,0.56,1.49
		c0.35,0.36,0.85,0.54,1.48,0.54c0.49,0,0.96-0.05,1.4-0.15c0.44-0.1,0.9-0.27,1.38-0.49v1.73c-0.39,0.2-0.81,0.34-1.25,0.44
		C78.34,27.1,77.8,27.15,77.16,27.15z M76.85,20.24c-0.47,0-0.85,0.15-1.11,0.45c-0.27,0.3-0.42,0.73-0.46,1.28h3.14
		c-0.01-0.55-0.15-0.98-0.43-1.28C77.69,20.39,77.32,20.24,76.85,20.24z"/>
	<path class="st0" d="M88.04,24.57c0,0.84-0.29,1.48-0.88,1.92c-0.58,0.44-1.46,0.66-2.62,0.66c-0.6,0-1.1-0.04-1.53-0.12
		c-0.42-0.08-0.81-0.2-1.18-0.36v-1.85c0.42,0.2,0.88,0.36,1.4,0.49c0.52,0.13,0.98,0.2,1.38,0.2c0.81,0,1.22-0.23,1.22-0.7
		c0-0.18-0.05-0.32-0.16-0.43c-0.11-0.11-0.29-0.23-0.56-0.37c-0.26-0.14-0.62-0.3-1.06-0.49c-0.63-0.26-1.09-0.51-1.39-0.73
		c-0.3-0.22-0.51-0.48-0.65-0.77c-0.13-0.29-0.2-0.65-0.2-1.07c0-0.73,0.28-1.29,0.85-1.69s1.36-0.6,2.4-0.6
		c0.99,0,1.95,0.21,2.88,0.64l-0.67,1.61c-0.41-0.18-0.79-0.32-1.15-0.43s-0.72-0.17-1.09-0.17c-0.66,0-0.99,0.18-0.99,0.54
		c0,0.2,0.11,0.37,0.32,0.52c0.21,0.15,0.68,0.36,1.4,0.65c0.64,0.26,1.11,0.5,1.41,0.73c0.3,0.22,0.52,0.48,0.66,0.78
		C87.97,23.81,88.04,24.16,88.04,24.57z"/>
	<path class="st0" d="M93.49,27.15c-1.32,0-2.35-0.36-3.09-1.09c-0.74-0.73-1.11-1.76-1.11-3.09c0-1.37,0.34-2.44,1.03-3.19
		s1.64-1.12,2.85-1.12c1.16,0,2.06,0.33,2.71,0.99c0.64,0.66,0.97,1.57,0.97,2.73v1.08h-5.29c0.02,0.64,0.21,1.13,0.56,1.49
		c0.35,0.36,0.85,0.54,1.48,0.54c0.49,0,0.96-0.05,1.4-0.15c0.44-0.1,0.9-0.27,1.38-0.49v1.73c-0.39,0.2-0.81,0.34-1.25,0.44
		C94.68,27.1,94.13,27.15,93.49,27.15z M93.18,20.24c-0.47,0-0.85,0.15-1.11,0.45c-0.27,0.3-0.42,0.73-0.46,1.28h3.14
		c-0.01-0.55-0.15-0.98-0.43-1.28C94.03,20.39,93.65,20.24,93.18,20.24z"/>
	<path class="st0" d="M103.86,27l-0.43-1.11h-0.06c-0.38,0.47-0.76,0.8-1.16,0.99c-0.4,0.18-0.92,0.27-1.56,0.27
		c-0.79,0-1.41-0.22-1.86-0.67c-0.45-0.45-0.68-1.09-0.68-1.92c0-0.87,0.3-1.51,0.91-1.92s1.53-0.64,2.75-0.69l1.42-0.04v-0.36
		c0-0.83-0.42-1.25-1.28-1.25c-0.66,0-1.42,0.2-2.31,0.59l-0.74-1.51c0.94-0.49,1.99-0.74,3.14-0.74c1.1,0,1.94,0.24,2.53,0.72
		c0.59,0.48,0.88,1.21,0.88,2.18V27H103.86z M103.2,23.2l-0.87,0.03c-0.65,0.02-1.13,0.14-1.45,0.35s-0.48,0.54-0.48,0.98
		c0,0.63,0.36,0.95,1.08,0.95c0.52,0,0.93-0.15,1.24-0.45c0.31-0.3,0.46-0.69,0.46-1.19V23.2z"/>
	<path class="st0" d="M112.3,18.65c0.3,0,0.55,0.02,0.75,0.07l-0.17,2.1c-0.18-0.05-0.4-0.07-0.66-0.07c-0.71,0-1.27,0.18-1.67,0.55
		c-0.4,0.37-0.6,0.88-0.6,1.54V27h-2.24v-8.2h1.69l0.33,1.38h0.11c0.25-0.46,0.6-0.83,1.03-1.11
		C111.32,18.79,111.79,18.65,112.3,18.65z"/>
	<path class="st0" d="M117.87,27.15c-2.55,0-3.83-1.4-3.83-4.2c0-1.39,0.35-2.46,1.04-3.19c0.69-0.74,1.69-1.1,2.98-1.1
		c0.95,0,1.8,0.19,2.55,0.56l-0.66,1.73c-0.35-0.14-0.68-0.26-0.98-0.35c-0.3-0.09-0.61-0.14-0.91-0.14c-1.16,0-1.75,0.83-1.75,2.48
		c0,1.6,0.58,2.4,1.75,2.4c0.43,0,0.83-0.06,1.19-0.17c0.37-0.12,0.73-0.29,1.1-0.54v1.91c-0.36,0.23-0.73,0.39-1.1,0.48
		S118.43,27.15,117.87,27.15z"/>
	<path class="st0" d="M129.82,27h-2.24v-4.79c0-1.18-0.44-1.77-1.32-1.77c-0.62,0-1.08,0.21-1.36,0.64
		c-0.28,0.42-0.42,1.11-0.42,2.07V27h-2.24V15.59h2.24v2.32c0,0.18-0.02,0.61-0.05,1.28l-0.05,0.66h0.12c0.5-0.8,1.29-1.2,2.38-1.2
		c0.96,0,1.69,0.26,2.19,0.78c0.5,0.52,0.75,1.26,0.75,2.23V27z"/>
	<path class="st0" d="M68.25,42.01l-2.58-8.41h-0.07c0.09,1.71,0.14,2.85,0.14,3.42v4.99h-2.03V31.3h3.09l2.54,8.2h0.04l2.69-8.2
		h3.09v10.72h-2.12v-5.07c0-0.24,0-0.52,0.01-0.83c0.01-0.31,0.04-1.14,0.1-2.49H73.1l-2.76,8.39H68.25z"/>
	<path class="st0" d="M76.52,33.82h2.45l1.55,4.61c0.13,0.4,0.22,0.88,0.27,1.42h0.04c0.05-0.5,0.16-0.98,0.32-1.42l1.52-4.61h2.4
		l-3.47,9.24c-0.32,0.86-0.77,1.5-1.36,1.92c-0.59,0.43-1.28,0.64-2.06,0.64c-0.39,0-0.76-0.04-1.14-0.12v-1.77
		c0.27,0.06,0.56,0.1,0.88,0.1c0.4,0,0.74-0.12,1.04-0.36c0.3-0.24,0.53-0.61,0.69-1.1l0.13-0.4L76.52,33.82z"/>
	<path class="st0" d="M92.97,42.01l-0.78-2.55h-3.91l-0.78,2.55h-2.45l3.78-10.76h2.78l3.8,10.76H92.97z M91.65,37.56
		c-0.72-2.31-1.12-3.62-1.21-3.92c-0.09-0.3-0.16-0.54-0.19-0.72c-0.16,0.63-0.62,2.17-1.39,4.64H91.65z"/>
	<path class="st0" d="M102.31,39.58c0,0.84-0.29,1.48-0.88,1.92c-0.58,0.44-1.46,0.66-2.62,0.66c-0.6,0-1.1-0.04-1.53-0.12
		c-0.42-0.08-0.81-0.2-1.18-0.36v-1.85c0.42,0.2,0.88,0.36,1.4,0.49c0.52,0.13,0.98,0.2,1.38,0.2c0.81,0,1.22-0.23,1.22-0.7
		c0-0.18-0.05-0.32-0.16-0.43c-0.11-0.11-0.29-0.23-0.56-0.37c-0.26-0.14-0.62-0.3-1.06-0.49c-0.63-0.26-1.09-0.51-1.39-0.73
		c-0.3-0.22-0.51-0.48-0.65-0.77c-0.13-0.29-0.2-0.65-0.2-1.07c0-0.73,0.28-1.29,0.85-1.69s1.36-0.6,2.4-0.6
		c0.99,0,1.95,0.21,2.88,0.64l-0.67,1.61c-0.41-0.18-0.79-0.32-1.15-0.43s-0.72-0.17-1.09-0.17c-0.66,0-0.99,0.18-0.99,0.54
		c0,0.2,0.11,0.37,0.32,0.52c0.21,0.15,0.68,0.36,1.4,0.65c0.64,0.26,1.11,0.5,1.41,0.73c0.3,0.22,0.52,0.48,0.66,0.78
		C102.24,38.83,102.31,39.17,102.31,39.58z"/>
	<path class="st0" d="M109.77,39.58c0,0.84-0.29,1.48-0.88,1.92c-0.58,0.44-1.46,0.66-2.62,0.66c-0.6,0-1.1-0.04-1.53-0.12
		c-0.42-0.08-0.81-0.2-1.18-0.36v-1.85c0.42,0.2,0.88,0.36,1.4,0.49c0.52,0.13,0.98,0.2,1.38,0.2c0.81,0,1.22-0.23,1.22-0.7
		c0-0.18-0.05-0.32-0.16-0.43c-0.11-0.11-0.29-0.23-0.56-0.37c-0.26-0.14-0.62-0.3-1.06-0.49c-0.63-0.26-1.09-0.51-1.39-0.73
		c-0.3-0.22-0.51-0.48-0.65-0.77c-0.13-0.29-0.2-0.65-0.2-1.07c0-0.73,0.28-1.29,0.85-1.69s1.36-0.6,2.4-0.6
		c0.99,0,1.95,0.21,2.88,0.64l-0.67,1.61c-0.41-0.18-0.79-0.32-1.15-0.43s-0.72-0.17-1.09-0.17c-0.66,0-0.99,0.18-0.99,0.54
		c0,0.2,0.11,0.37,0.32,0.52c0.21,0.15,0.68,0.36,1.4,0.65c0.64,0.26,1.11,0.5,1.41,0.73c0.3,0.22,0.52,0.48,0.66,0.78
		C109.7,38.83,109.77,39.17,109.77,39.58z"/>
	<path class="st0" d="M111.42,31.7c0-0.73,0.41-1.09,1.22-1.09c0.81,0,1.22,0.36,1.22,1.09c0,0.35-0.1,0.62-0.3,0.81
		c-0.2,0.19-0.51,0.29-0.91,0.29C111.83,32.8,111.42,32.43,111.42,31.7z M113.76,42.01h-2.24v-8.2h2.24V42.01z"/>
	<path class="st0" d="M123.23,33.82v1.14l-1.28,0.33c0.24,0.37,0.35,0.78,0.35,1.23c0,0.88-0.31,1.57-0.92,2.06
		s-1.46,0.74-2.55,0.74l-0.4-0.02l-0.33-0.04c-0.23,0.18-0.34,0.37-0.34,0.59c0,0.32,0.41,0.48,1.23,0.48h1.39
		c0.9,0,1.58,0.19,2.06,0.58s0.71,0.95,0.71,1.7c0,0.96-0.4,1.7-1.2,2.23c-0.8,0.53-1.95,0.79-3.44,0.79c-1.14,0-2.02-0.2-2.62-0.6
		c-0.6-0.4-0.91-0.96-0.91-1.68c0-0.49,0.15-0.91,0.46-1.24c0.31-0.33,0.76-0.57,1.36-0.71c-0.23-0.1-0.43-0.26-0.6-0.48
		s-0.26-0.46-0.26-0.71c0-0.31,0.09-0.57,0.27-0.78s0.44-0.41,0.78-0.61c-0.43-0.19-0.77-0.48-1.02-0.89
		c-0.25-0.41-0.38-0.89-0.38-1.45c0-0.89,0.29-1.59,0.87-2.07c0.58-0.49,1.41-0.73,2.49-0.73c0.23,0,0.5,0.02,0.82,0.06
		c0.32,0.04,0.52,0.07,0.61,0.09H123.23z M116.91,43.17c0,0.31,0.15,0.55,0.44,0.73s0.71,0.26,1.24,0.26c0.8,0,1.43-0.11,1.88-0.33
		c0.45-0.22,0.68-0.52,0.68-0.9c0-0.31-0.13-0.52-0.4-0.64s-0.68-0.18-1.25-0.18h-1.16c-0.41,0-0.75,0.1-1.03,0.29
		C117.05,42.6,116.91,42.86,116.91,43.17z M117.72,36.5c0,0.44,0.1,0.8,0.3,1.06c0.2,0.26,0.51,0.39,0.93,0.39
		c0.42,0,0.73-0.13,0.92-0.39s0.29-0.61,0.29-1.06c0-0.99-0.41-1.48-1.22-1.48C118.13,35.02,117.72,35.51,117.72,36.5z"/>
	<path class="st0" d="M132.15,42.01h-2.24v-4.79c0-0.59-0.1-1.04-0.31-1.33c-0.21-0.3-0.54-0.44-1-0.44c-0.62,0-1.08,0.21-1.36,0.63
		c-0.28,0.42-0.42,1.11-0.42,2.08v3.86h-2.24v-8.2h1.71l0.3,1.05h0.12c0.25-0.4,0.59-0.7,1.03-0.9c0.44-0.2,0.93-0.3,1.49-0.3
		c0.95,0,1.68,0.26,2.17,0.77c0.49,0.52,0.74,1.26,0.74,2.23V42.01z"/>
	<path class="st0" d="M141.79,42.01h-2.24v-4.79c0-0.59-0.1-1.04-0.3-1.33c-0.2-0.3-0.51-0.44-0.93-0.44
		c-0.57,0-0.99,0.21-1.25,0.63c-0.26,0.42-0.39,1.11-0.39,2.07v3.86h-2.24v-8.2h1.71l0.3,1.05h0.12c0.22-0.38,0.54-0.67,0.95-0.88
		c0.42-0.21,0.89-0.32,1.43-0.32c1.23,0,2.06,0.4,2.49,1.2h0.2c0.22-0.38,0.54-0.68,0.97-0.89s0.91-0.32,1.45-0.32
		c0.93,0,1.63,0.24,2.11,0.71s0.71,1.24,0.71,2.29v5.34h-2.24v-4.79c0-0.59-0.1-1.04-0.3-1.33c-0.2-0.3-0.51-0.44-0.93-0.44
		c-0.55,0-0.96,0.2-1.23,0.59s-0.41,1.01-0.41,1.86V42.01z"/>
	<path class="st0" d="M152.9,42.16c-1.32,0-2.35-0.36-3.09-1.09c-0.74-0.73-1.11-1.76-1.11-3.09c0-1.37,0.34-2.44,1.03-3.19
		s1.64-1.12,2.85-1.12c1.16,0,2.06,0.33,2.71,0.99c0.64,0.66,0.97,1.57,0.97,2.73v1.08h-5.29c0.02,0.64,0.21,1.13,0.56,1.49
		c0.35,0.36,0.85,0.54,1.48,0.54c0.49,0,0.96-0.05,1.4-0.15c0.44-0.1,0.9-0.27,1.38-0.49v1.73c-0.39,0.2-0.81,0.34-1.25,0.44
		C154.09,42.11,153.54,42.16,152.9,42.16z M152.59,35.26c-0.47,0-0.85,0.15-1.11,0.45c-0.27,0.3-0.42,0.73-0.46,1.28h3.14
		c-0.01-0.55-0.15-0.98-0.43-1.28C153.44,35.41,153.06,35.26,152.59,35.26z"/>
	<path class="st0" d="M165.63,42.01h-2.24v-4.79c0-0.59-0.1-1.04-0.31-1.33c-0.21-0.3-0.54-0.44-1-0.44c-0.62,0-1.08,0.21-1.36,0.63
		c-0.28,0.42-0.42,1.11-0.42,2.08v3.86h-2.24v-8.2h1.71l0.3,1.05h0.12c0.25-0.4,0.59-0.7,1.03-0.9c0.44-0.2,0.93-0.3,1.49-0.3
		c0.95,0,1.68,0.26,2.17,0.77c0.49,0.52,0.74,1.26,0.74,2.23V42.01z"/>
	<path class="st0" d="M171.38,40.38c0.39,0,0.86-0.09,1.41-0.26v1.66c-0.56,0.25-1.24,0.37-2.05,0.37c-0.89,0-1.55-0.23-1.95-0.68
		c-0.41-0.45-0.61-1.13-0.61-2.03V35.5h-1.07v-0.95l1.23-0.75l0.65-1.73h1.43v1.74h2.29v1.68h-2.29v3.95c0,0.32,0.09,0.55,0.27,0.7
		C170.85,40.3,171.09,40.38,171.38,40.38z"/>
</g>
<g>
	<path class="st1" d="M64.57,52.98c-0.68,0-1.21-0.37-1.21-0.97h0.6c0.02,0.28,0.22,0.5,0.61,0.5c0.39,0,0.61-0.21,0.61-0.5
		c0-0.82-1.81-0.29-1.81-1.54c0-0.6,0.47-0.97,1.17-0.97c0.65,0,1.11,0.34,1.16,0.93h-0.62c-0.02-0.23-0.22-0.44-0.57-0.45
		c-0.32-0.01-0.57,0.15-0.57,0.47c0,0.77,1.8,0.29,1.8,1.53C65.75,52.49,65.33,52.98,64.57,52.98z"/>
	<path class="st1" d="M66.23,49.54h2.38V50H67.7v2.95h-0.56V50h-0.91V49.54z"/>
	<path class="st1" d="M71.05,49.99h-1.32v1h1.18v0.46h-1.18v1.04h1.32v0.46h-1.88v-3.41h1.88V49.99z"/>
	<path class="st1" d="M72.91,51.56h-0.62v1.38h-0.56v-3.4h1.18c0.81,0,1.21,0.46,1.21,1.01C74.11,51.04,73.79,51.56,72.91,51.56z
		 M72.91,51.11c0.44,0,0.63-0.21,0.63-0.55c0-0.35-0.2-0.56-0.63-0.56h-0.62v1.11H72.91z"/>
	<path class="st1" d="M75.82,51.56H75.2v1.38h-0.56v-3.4h1.18c0.81,0,1.21,0.46,1.21,1.01C77.02,51.04,76.7,51.56,75.82,51.56z
		 M75.82,51.11c0.44,0,0.63-0.21,0.63-0.55c0-0.35-0.2-0.56-0.63-0.56H75.2v1.11H75.82z"/>
	<path class="st1" d="M77.56,49.54h0.56v3.4h-0.56V49.54z"/>
	<path class="st1" d="M81.64,49.54v3.41h-0.56l-1.68-2.54v2.54h-0.56v-3.41h0.56l1.68,2.54v-2.54H81.64z"/>
	<path class="st1" d="M85.51,50.52h-0.67c-0.18-0.34-0.5-0.51-0.91-0.51c-0.68,0-1.17,0.48-1.17,1.23c0,0.75,0.49,1.23,1.17,1.23
		c0.62,0,1-0.37,1.09-0.95h-1.28v-0.45h1.88v0.44c-0.1,0.79-0.77,1.46-1.69,1.46c-0.96,0-1.74-0.71-1.74-1.74
		c0-1.02,0.78-1.74,1.74-1.74C84.64,49.5,85.25,49.85,85.51,50.52z"/>
	<path class="st1" d="M88.56,52.98c-0.68,0-1.21-0.37-1.21-0.97h0.6c0.02,0.28,0.22,0.5,0.61,0.5c0.39,0,0.61-0.21,0.61-0.5
		c0-0.82-1.81-0.29-1.81-1.54c0-0.6,0.47-0.97,1.17-0.97c0.65,0,1.11,0.34,1.16,0.93h-0.62c-0.02-0.23-0.22-0.44-0.57-0.45
		c-0.32-0.01-0.57,0.15-0.57,0.47c0,0.77,1.8,0.29,1.8,1.53C89.73,52.49,89.31,52.98,88.56,52.98z"/>
	<path class="st1" d="M90.21,49.54h2.38V50h-0.91v2.95h-0.56V50h-0.91V49.54z"/>
	<path class="st1" d="M94.7,52.98c-0.96,0-1.74-0.72-1.74-1.74c0-1.02,0.78-1.74,1.74-1.74c0.97,0,1.74,0.72,1.74,1.74
		C96.44,52.26,95.67,52.98,94.7,52.98z M94.7,52.5c0.68,0,1.17-0.49,1.17-1.26c0-0.77-0.49-1.25-1.17-1.25s-1.17,0.48-1.17,1.25
		C93.54,52,94.03,52.5,94.7,52.5z"/>
	<path class="st1" d="M99.78,49.54v3.41h-0.56l-1.68-2.54v2.54h-0.56v-3.41h0.56l1.68,2.54v-2.54H99.78z"/>
	<path class="st1" d="M102.4,49.99h-1.32v1h1.18v0.46h-1.18v1.04h1.32v0.46h-1.88v-3.41h1.88V49.99z"/>
	<path class="st1" d="M104.18,49.54h2.38V50h-0.91v2.95h-0.56V50h-0.91V49.54z"/>
	<path class="st1" d="M108.67,52.98c-0.96,0-1.74-0.72-1.74-1.74c0-1.02,0.78-1.74,1.74-1.74c0.97,0,1.74,0.72,1.74,1.74
		C110.41,52.26,109.64,52.98,108.67,52.98z M108.67,52.5c0.68,0,1.17-0.49,1.17-1.26c0-0.77-0.49-1.25-1.17-1.25
		s-1.17,0.48-1.17,1.25C107.5,52,107.99,52.5,108.67,52.5z"/>
	<path class="st1" d="M110.68,49.54h0.59l0.71,2.77l0.76-2.77h0.63l0.71,2.76l0.71-2.76h0.6l-1.01,3.4h-0.63l-0.71-2.58l-0.76,2.58
		l-0.63,0L110.68,49.54z"/>
	<path class="st1" d="M117.9,52.25h-1.43l-0.25,0.7h-0.58l1.22-3.41h0.65l1.22,3.41h-0.59L117.9,52.25z M117.18,50.21l-0.56,1.58
		h1.11L117.18,50.21z"/>
	<path class="st1" d="M120.43,49.54c0.81,0,1.21,0.47,1.21,1.02c0,0.4-0.22,0.83-0.79,0.98l0.84,1.41h-0.67l-0.78-1.36h-0.43v1.36
		h-0.56v-3.4H120.43z M120.43,50h-0.62v1.14h0.62c0.44,0,0.63-0.24,0.63-0.58C121.06,50.22,120.87,50,120.43,50z"/>
	<path class="st1" d="M125.27,51.26c0,1.05-0.71,1.69-1.81,1.69h-1.11v-3.4h1.11C124.55,49.54,125.27,50.2,125.27,51.26z
		 M123.46,52.49c0.8,0,1.23-0.46,1.23-1.23c0-0.78-0.43-1.26-1.23-1.26h-0.55v2.49H123.46z"/>
	<path class="st1" d="M126.94,52.98c-0.68,0-1.21-0.37-1.21-0.97h0.6c0.02,0.28,0.22,0.5,0.61,0.5c0.39,0,0.61-0.21,0.61-0.5
		c0-0.82-1.81-0.29-1.81-1.54c0-0.6,0.47-0.97,1.17-0.97c0.65,0,1.11,0.34,1.16,0.93h-0.62c-0.02-0.23-0.22-0.44-0.57-0.45
		c-0.32-0.01-0.57,0.15-0.57,0.47c0,0.77,1.8,0.29,1.8,1.53C128.12,52.49,127.7,52.98,126.94,52.98z"/>
	<path class="st1" d="M132.1,52.25h-1.43l-0.25,0.7h-0.58l1.22-3.41h0.65l1.22,3.41h-0.59L132.1,52.25z M131.39,50.21l-0.56,1.58
		h1.11L131.39,50.21z"/>
	<path class="st1" d="M135.01,49.5c0.71,0,1.32,0.36,1.58,1.02h-0.67c-0.18-0.36-0.5-0.53-0.91-0.53c-0.68,0-1.17,0.48-1.17,1.25
		c0,0.77,0.49,1.25,1.17,1.25c0.41,0,0.73-0.17,0.91-0.53h0.67c-0.26,0.67-0.87,1.02-1.58,1.02c-0.96,0-1.74-0.71-1.74-1.74
		C133.27,50.22,134.05,49.5,135.01,49.5z"/>
	<path class="st1" d="M139.4,51.46h-1.6v1.49h-0.56v-3.4h0.56V51h1.6v-1.46h0.56v3.4h-0.56V51.46z"/>
	<path class="st1" d="M140.7,49.54h0.56v3.4h-0.56V49.54z"/>
	<path class="st1" d="M143.87,49.99h-1.32v1h1.18v0.46h-1.18v1.04h1.32v0.46h-1.88v-3.41h1.88V49.99z"/>
	<path class="st1" d="M146.9,49.54h0.59l-1.28,3.4h-0.65l-1.28-3.4h0.6l1.01,2.83L146.9,49.54z"/>
	<path class="st1" d="M147.95,49.54h0.56v3.4h-0.56V49.54z"/>
	<path class="st1" d="M152.04,49.54v3.41h-0.56l-1.68-2.54v2.54h-0.56v-3.41h0.56l1.68,2.54v-2.54H152.04z"/>
	<path class="st1" d="M155.91,50.52h-0.67c-0.18-0.34-0.5-0.51-0.91-0.51c-0.68,0-1.17,0.48-1.17,1.23c0,0.75,0.49,1.23,1.17,1.23
		c0.62,0,1-0.37,1.09-0.95h-1.28v-0.45h1.88v0.44c-0.1,0.79-0.77,1.46-1.69,1.46c-0.96,0-1.74-0.71-1.74-1.74
		c0-1.02,0.78-1.74,1.74-1.74C155.03,49.5,155.65,49.85,155.91,50.52z"/>
	<path class="st1" d="M160.96,50.52h-0.67c-0.18-0.34-0.5-0.51-0.91-0.51c-0.68,0-1.17,0.48-1.17,1.23c0,0.75,0.49,1.23,1.17,1.23
		c0.62,0,1-0.37,1.09-0.95h-1.28v-0.45h1.88v0.44c-0.1,0.79-0.77,1.46-1.69,1.46c-0.96,0-1.74-0.71-1.74-1.74
		c0-1.02,0.78-1.74,1.74-1.74C160.09,49.5,160.7,49.85,160.96,50.52z"/>
	<path class="st1" d="M163.16,52.98c-0.96,0-1.74-0.72-1.74-1.74c0-1.02,0.78-1.74,1.74-1.74c0.97,0,1.74,0.72,1.74,1.74
		C164.9,52.26,164.13,52.98,163.16,52.98z M163.16,52.5c0.68,0,1.17-0.49,1.17-1.26c0-0.77-0.49-1.25-1.17-1.25S162,50.47,162,51.24
		C162,52,162.49,52.5,163.16,52.5z"/>
	<path class="st1" d="M167.5,52.25h-1.43l-0.25,0.7h-0.58l1.22-3.41h0.65l1.22,3.41h-0.59L167.5,52.25z M166.79,50.21l-0.56,1.58
		h1.11L166.79,50.21z"/>
	<path class="st1" d="M169.42,49.54v2.95h1.15v0.45h-1.71v-3.4H169.42z"/>
	<path class="st1" d="M172.16,52.98c-0.68,0-1.21-0.37-1.21-0.97h0.6c0.02,0.28,0.22,0.5,0.61,0.5c0.39,0,0.61-0.21,0.61-0.5
		c0-0.82-1.81-0.29-1.81-1.54c0-0.6,0.47-0.97,1.17-0.97c0.65,0,1.11,0.34,1.16,0.93h-0.62c-0.02-0.23-0.22-0.44-0.57-0.45
		c-0.32-0.01-0.57,0.15-0.57,0.47c0,0.77,1.8,0.29,1.8,1.53C173.33,52.49,172.92,52.98,172.16,52.98z"/>
</g>
<g>
	<path class="st2" d="M53.28,11.71c-1.72-2.68-3.86-3.89-6.26-4.14C49.16,8.67,51.27,10.03,53.28,11.71L53.28,11.71z M22.97,16.38
		c-1.8,0.61-3.6,1.06-5.35,1.23c0,16.52,0,33.04,0,49.55c10.14-0.8,30.3-13.76,35.23-6.66c-4.77-7.76-19.2-14.06-29.88-14.24V16.38z
		"/>
	<path class="st3" d="M53.28,11.71c-2.77-4.34-6.8-6-11.48-6.33C45.7,6.68,49.66,8.68,53.28,11.71L53.28,11.71z M22.97,7.73
		c-3.36,0.6-6.66,1.08-9.75,1.08c0,16.52,0,33.04,0,49.55c10.66,0.2,34.11-5.77,39.55,2.03c-4.86-7.7-19.18-13.94-29.81-14.12V7.73z
		"/>
	<path class="st4" d="M53.28,11.71C44.65,1.4,33.2,1.23,19.37,1.25c0,16.52,0,33.04,0,49.55c9.95,0.19,26.07,1.13,32.26,8
		c-5.68-6.95-18.77-12.37-28.67-12.54c0-14.68,0-28.38,0-43.05C29.68,2.8,42.83,2.98,53.28,11.71L53.28,11.71z"/>
	<path class="st5" d="M47.77,28.32c-7.4,2.57-13.46,6.88-18.59,12.39c5.16-7.7,8.49-16.46,9.98-26.28
		C38.37,23.35,39.99,29.44,47.77,28.32z"/>
	<path class="st2" d="M37.57,17.65c-1.06,8.41-4.17,15.27-8.61,21.04c2.11-5.23,3.32-9.42-3.99-17.52
		C32.51,26.08,33.42,25.03,37.57,17.65z"/>
	<path class="st2" d="M46.76,30.37c-6.63,2.01-11.83,5.63-15.6,11.16c4.23-1.58,8.31-1.24,12.2,1.42
		C38.29,37.94,40.8,33.93,46.76,30.37z"/>
	<path class="st5" d="M45.09,21.64c-1.24-0.72-2.83-0.29-3.55,0.96c-0.72,1.24-0.29,2.83,0.96,3.55c1.24,0.72,2.83,0.29,3.55-0.96
		c0.21-0.37,0.32-0.77,0.34-1.17c-0.57-0.43-1.3-0.66-2.23-0.67c0.51-0.35,1.27-0.24,2.21,0.19C46.27,22.78,45.82,22.06,45.09,21.64
		z"/>
	<path class="st5" d="M47.44,19.32l-4.4-1.4l0.95,2.21C45.1,20.36,46,21.07,46.81,22c-0.9-0.67-1.78-1.22-2.62-1.41l0.67,1.57
		l4.4,1.4L47.44,19.32z"/>
	<path class="st5" d="M47.71,21.93l-3.03-2.14l-0.31,0.44c0.94,0.3,1.73,0.95,2.44,1.78c-0.92-0.68-1.83-1.25-2.69-1.42l-0.86,1.22
		l1.93,1.36c0.39,0.05,0.84,0.21,1.33,0.45L47.71,21.93z"/>
	<path class="st2" d="M45.11,35.66c-0.4-0.46-1.02-0.72-1.68-0.63c-1.04,0.13-1.78,1.09-1.65,2.13c0.13,1.04,1.09,1.78,2.13,1.65
		c0.31-0.04,0.59-0.15,0.83-0.32c0-0.52-0.19-1.05-0.6-1.6c0.45,0.15,0.73,0.69,0.89,1.49l0.68-0.02l0.57,1.6l1.67-2.95l-1.13-3.19
		l-0.87,1.54c0.36,0.76,0.34,1.6,0.16,2.48c-0.01-0.84-0.08-1.63-0.36-2.2L45.11,35.66z"/>
	<path class="st2" d="M31.06,20.13c-0.54,0.29-0.93,0.84-0.99,1.49c-0.1,1.05,0.67,1.98,1.72,2.08c1.05,0.1,1.98-0.67,2.08-1.72
		c0.03-0.31-0.02-0.61-0.13-0.88c-0.51-0.11-1.07-0.04-1.69,0.23c0.25-0.41,0.83-0.56,1.65-0.54l0.13-0.67l1.69-0.2l-2.51-2.28
		l-3.36,0.4l1.31,1.19c0.82-0.18,1.63,0.02,2.45,0.4c-0.82-0.18-1.6-0.28-2.23-0.13L31.06,20.13z"/>
	<path class="st4" d="M50.8,17.32c1.65-0.88,3.3-0.82,4.96,0c0-0.82,0-1.6,0-2.43c-1.19-1.45-3.86-1.38-4.96,0
		C50.8,15.58,50.8,16.63,50.8,17.32 M49.29,15.55v-0.36v-1.77v-0.27c0-0.08,0.06-0.15,0.14-0.16l1.21-0.16l2.64-1.15l6.52,2.83
		l-3.6,0.96v-0.64l-0.05-0.14c-0.12-0.15-0.26-0.28-0.4-0.4c-0.68-0.57-1.6-0.84-2.51-0.83c-0.91,0.01-1.81,0.3-2.45,0.86
		c-0.13,0.11-0.26,0.24-0.37,0.38l-0.05,0.13v0.64l-0.76-0.2v0.28c0.07,0.05,0.12,0.14,0.12,0.24c0,0.11-0.06,0.2-0.14,0.25
		c0.04,0.02,0.09,0.05,0.12,0.1l0.1,0.94c-0.1,0.08-0.23,0.13-0.36,0.13c-0.14,0-0.26-0.05-0.36-0.13l0.1-0.94
		c0.04-0.04,0.08-0.07,0.12-0.1c-0.08-0.05-0.14-0.14-0.14-0.25C49.17,15.69,49.22,15.6,49.29,15.55z M46.77,14.51l2.2-0.96v1.55
		L46.77,14.51z"/>
	<path class="st3" d="M55.76,53.77V18.33h-1.66v35.15c0.11,0.07,0.21,0.14,0.31,0.22c0.2,0.15,0.39,0.3,0.71,0.3
		C55.41,54,55.59,53.89,55.76,53.77 M52.46,53.87V18.71H50.8v35.44c0.17,0.13,0.35,0.24,0.63,0.24c0.32,0,0.52-0.15,0.71-0.3
		C52.25,54.01,52.35,53.93,52.46,53.87z"/>
	<path class="st2" d="M52.65,59.27l0.66,1.26l0.66-1.26c-0.21,0.03-0.43,0.04-0.64,0.04C53.1,59.31,52.87,59.3,52.65,59.27
		 M50.8,55.74l1.54,2.94c0.05,0.01,0.11,0.02,0.17,0.03c0.27,0.04,0.55,0.07,0.82,0.07c0.27,0,0.55-0.03,0.82-0.07
		c0.04-0.01,0.08-0.02,0.13-0.02l1.53-2.94c-0.08,0.01-0.17,0.02-0.27,0.02c-0.66,0-1.01-0.29-1.36-0.57
		c-0.24-0.19-0.47-0.38-0.85-0.38s-0.62,0.19-0.85,0.38c-0.35,0.29-0.7,0.57-1.36,0.57C51,55.76,50.9,55.75,50.8,55.74z"/>
</g>
</svg>
